HIERARCHY
ROOT Hips
{
 OFFSET 0.000000 0.000000 0.000000
 CHANNELS 6 Xposition Yposition Zposition Yrotation Xrotation Zrotation
 JOINT Chest
 {
  OFFSET 0.000000 9.588913 -0.003946
  CHANNELS 3 Yrotation Xrotation Zrotation
  JOINT Chest2
  {
   OFFSET 0.000000 9.541882 0.008053
   CHANNELS 3 Yrotation Xrotation Zrotation
   JOINT Chest3
   {
    OFFSET 0.000000 9.501360 0.000000
    CHANNELS 3 Yrotation Xrotation Zrotation
    JOINT Chest4
    {
     OFFSET 0.000000 9.491660 0.000000
     CHANNELS 3 Yrotation Xrotation Zrotation
     JOINT Neck
     {
      OFFSET 0.000000 14.331917 0.000000
      CHANNELS 3 Yrotation Xrotation Zrotation
      JOINT Head
      {
       OFFSET 0.000000 8.884799 0.017034
       CHANNELS 3 Yrotation Xrotation Zrotation
       End Site
       {
        OFFSET 0.000000 16.896195 0.008993
       }
      }
     }
     JOINT RightCollar
     {
      OFFSET -2.923010 9.499495 0.000000
      CHANNELS 3 Yrotation Xrotation Zrotation
      JOINT RightShoulder
      {
       OFFSET -13.795216 0.000000 0.000000
       CHANNELS 3 Yrotation Xrotation Zrotation
       JOINT RightElbow
       {
        OFFSET -30.272209 0.000000 0.000000
        CHANNELS 3 Yrotation Xrotation Zrotation
        JOINT RightWrist
        {
         OFFSET -24.478199 0.000000 0.000000
         CHANNELS 3 Yrotation Xrotation Zrotation
         End Site
         {
          OFFSET -18.090752 0.000000 0.000000
         }
        }
       }
      }
     }
     JOINT LeftCollar
     {
      OFFSET 2.923010 9.499495 0.000000
      CHANNELS 3 Yrotation Xrotation Zrotation
      JOINT LeftShoulder
      {
       OFFSET 13.795216 0.000000 0.000000
       CHANNELS 3 Yrotation Xrotation Zrotation
       JOINT LeftElbow
       {
        OFFSET 30.272209 0.000000 0.000000
        CHANNELS 3 Yrotation Xrotation Zrotation
        JOINT LeftWrist
        {
         OFFSET 24.478199 0.000000 0.000000
         CHANNELS 3 Yrotation Xrotation Zrotation
         End Site
         {
          OFFSET 18.090752 0.000000 0.000000
         }
        }
       }
      }
     }
    }
   }
  }
 }
 JOINT RightHip
 {
  OFFSET -7.826875 0.019532 0.001973
  CHANNELS 3 Yrotation Xrotation Zrotation
  JOINT RightKnee
  {
   OFFSET 0.000000 -40.546152 -0.001885
   CHANNELS 3 Yrotation Xrotation Zrotation
   JOINT RightAnkle
   {
    OFFSET 0.000000 -39.417092 -0.003189
    CHANNELS 3 Yrotation Xrotation Zrotation
    JOINT RightToe
    {
     OFFSET 0.000000 -7.579396 17.243563
     CHANNELS 3 Yrotation Xrotation Zrotation
     End Site
     {
      OFFSET 0.000000 -1.500329 6.694466
     }
    }
   }
  }
 }
 JOINT LeftHip
 {
  OFFSET 7.826875 0.019532 0.001973
  CHANNELS 3 Yrotation Xrotation Zrotation
  JOINT LeftKnee
  {
   OFFSET 0.000000 -40.546152 -0.001885
   CHANNELS 3 Yrotation Xrotation Zrotation
   JOINT LeftAnkle
   {
    OFFSET 0.000000 -39.417092 -0.003189
    CHANNELS 3 Yrotation Xrotation Zrotation
    JOINT LeftToe
    {
     OFFSET 0.000000 -7.579396 17.243563
     CHANNELS 3 Yrotation Xrotation Zrotation
     End Site
     {
      OFFSET 0.000000 -1.500329 6.694466
     }
    }
   }
  }
 }
}
MOTION
Frames: 11
Frame Time: 0.008333
0.000000 87.345680 0.000000 0.000000 -5.767889 0.000000 0.000000 11.653876 0.000000 0.000000 -5.885988 0.000000 0.000000 -0.000000 0.000000 0.000000 -0.000000 0.000000 0.000000 12.528808 0.000000 0.000000 0.711711 0.000000 0.000000 -0.000000 0.000000 0.000000 -0.000000 0.000000 2.309063 -0.000000 0.000000 -2.309063 -0.000000 -0.000000 0.000000 -0.000000 0.000000 0.000000 0.000000 0.000000 -2.309063 0.000000 0.000000 2.309063 -0.000000 0.000000 0.000000 8.520374 0.000000 0.000000 1.905768 0.000000 -0.000000 -4.658254 0.000000 0.000000 -0.000000 0.000000 0.000000 8.520374 0.000000 0.000000 1.905768 0.000000 -0.000000 -4.658254 0.000000 0.000000 -0.000000 0.000000
-2.801471 89.068837 10.679813 -53.323890 -5.415816 -1.405309 -1.474005 2.953009 0.974285 -0.845255 1.685410 0.554930 -1.054127 2.108021 0.689845 -0.845255 1.685410 0.554930 -8.503264 25.010115 1.051045 -9.685621 1.916000 3.116293 -3.493649 -1.465392 -2.650730 -0.000463 5.261075 86.436230 11.097075 5.429562 4.640864 -1.685357 -2.434219 -1.053880 4.457861 -1.077974 0.008461 -7.663104 -1.599152 -89.611525 0.106744 8.248167 -1.005213 -0.358640 -3.652700 -1.599634 1.830536 6.151597 1.835202 -2.648702 3.433631 -0.556258 -0.421411 -3.793366 -0.077432 -0.005138 0.026918 0.007456 7.728232 10.430467 1.895850 5.447223 2.260289 0.735716 5.442827 -7.117206 -1.611192 0.001415 -0.018550 -0.002152
-2.802550 89.068701 10.680946 -53.304533 -5.412854 -1.404146 -1.478857 2.948566 0.976007 -0.847646 1.682775 0.555860 -1.057116 2.104733 0.691002 -0.847646 1.682775 0.555860 -8.502277 25.001153 1.046580 -9.683134 1.904505 3.111107 -3.490478 -1.461245 -2.649731 -0.028215 5.264557 86.423901 11.109075 5.432712 4.642042 -1.681901 -2.435589 -1.054951 4.474120 -1.078251 0.001368 -7.655539 -1.587280 -89.608797 0.093401 8.251543 -1.006749 -0.355656 -3.654676 -1.598411 1.827571 6.153788 1.835597 -2.650536 3.430706 -0.559888 -0.428990 -3.794269 -0.076411 -0.004613 0.026100 0.006792 7.724330 10.432821 1.896244 5.441483 2.247986 0.732940 5.434174 -7.111164 -1.609527 0.000855 -0.018289 -0.001095
-2.804077 89.068617 10.682134 -53.281220 -5.410981 -1.404775 -1.485302 2.944420 0.977790 -0.851061 1.680412 0.557162 -1.061383 2.101788 0.692620 -0.851061 1.680412 0.557162 -8.500363 24.991386 1.043213 -9.679828 1.891968 3.106928 -3.486481 -1.455531 -2.649428 -0.055065 5.267432 86.412907 11.122258 5.438567 4.643069 -1.679635 -2.434085 -1.058941 4.489026 -1.079450 -0.007439 -7.647537 -1.573731 -89.605303 0.086584 8.254917 -1.006122 -0.353236 -3.653185 -1.597856 1.821664 6.157257 1.837774 -2.654066 3.428600 -0.563704 -0.435948 -3.796273 -0.075410 -0.004340 0.025521 0.006253 7.718237 10.435441 1.898370 5.434693 2.236863 0.730293 5.426121 -7.106321 -1.606938 0.000079 -0.017516 -0.001138
-2.806301 89.068583 10.681714 -53.253706 -5.406075 -1.416167 -1.492855 2.939737 0.989981 -0.854222 1.677746 0.558165 -1.065334 2.098462 0.693866 -0.854222 1.677746 0.558165 -8.499908 24.982051 1.042771 -9.678948 1.880294 3.106348 -3.485042 -1.452705 -2.647082 -0.078336 5.273285 86.400675 11.134834 5.441508 4.644062 -1.677379 -2.433095 -1.061462 4.495844 -1.078558 -0.015512 -7.640346 -1.565470 -89.597568 0.087037 8.257042 -1.007980 -0.349173 -3.651874 -1.599824 1.811991 6.154749 1.852113 -2.658425 3.432358 -0.566563 -0.441058 -3.817977 -0.077121 -0.005151 0.041292 0.005464 7.710957 10.434626 1.910802 5.429940 2.226122 0.729309 5.415861 -7.090897 -1.607043 -0.000903 -0.028411 -0.000615
-2.806118 89.068527 10.684582 -53.229770 -5.401394 -1.403075 -1.495007 2.936117 0.979598 -0.856267 1.675314 0.558778 -1.067891 2.095427 0.694628 -0.856267 1.675314 0.558778 -8.502853 24.973346 1.045351 -9.682766 1.869958 3.109935 -3.488210 -1.455034 -2.643504 -0.098263 5.281233 86.386171 11.144828 5.440315 4.646665 -1.673565 -2.432396 -1.062137 4.494524 -1.077839 -0.022756 -7.635985 -1.562255 -89.587613 0.093967 8.258340 -1.009065 -0.345569 -3.650969 -1.605363 1.802739 6.154199 1.837008 -2.660251 3.434254 -0.569162 -0.450295 -3.806928 -0.074633 -0.003726 0.025433 0.005726 7.702619 10.431526 1.895740 5.427405 2.219656 0.731654 5.405139 -7.095034 -1.609013 -0.000425 -0.018271 0.001581
-2.807388 89.068651 10.686325 -53.202937 -5.399887 -1.401046 -1.497668 2.933955 0.980305 -0.857632 1.673871 0.559285 -1.069596 2.093626 0.695259 -0.857632 1.673871 0.559285 -8.506619 24.964709 1.049686 -9.687973 1.859898 3.115671 -3.492196 -1.460332 -2.640714 -0.118506 5.291027 86.373685 11.153313 5.440176 4.650144 -1.669943 -2.427775 -1.065536 4.494824 -1.079241 -0.029595 -7.640476 -1.559591 -89.579546 0.105859 8.257752 -1.005241 -0.342199 -3.651065 -1.610824 1.793234 6.156040 1.835873 -2.661282 3.437953 -0.572716 -0.459761 -3.812465 -0.073147 -0.002975 0.024852 0.005260 7.692915 10.432021 1.891651 5.423969 2.213055 0.734874 5.397767 -7.089292 -1.611504 -0.000794 -0.019176 0.002728
-2.809315 89.068922 10.688354 -53.175906 -5.402982 -1.400262 -1.499828 2.933307 0.981146 -0.858710 1.673517 0.559792 -1.070943 2.093186 0.695889 -0.858710 1.673517 0.559792 -8.510457 24.954177 1.054581 -9.693352 1.847525 3.122049 -3.495436 -1.466912 -2.639778 -0.136794 5.303454 86.365918 11.160363 5.440084 4.653072 -1.669934 -2.420154 -1.073127 4.498748 -1.082249 -0.036811 -7.652738 -1.555659 -89.571725 0.122550 8.255208 -0.998907 -0.337199 -3.652033 -1.612485 1.784763 6.163536 1.834820 -2.662739 3.440243 -0.573665 -0.468521 -3.817315 -0.071661 -0.002191 0.024043 0.003993 7.682339 10.436952 1.890464 5.418344 2.207415 0.736198 5.392282 -7.084911 -1.611788 -0.001112 -0.019508 0.002348
-2.811484 89.069259 10.690347 -53.147626 -5.407551 -1.400996 -1.502014 2.933384 0.981630 -0.860038 1.673392 0.560180 -1.072601 2.093033 0.696368 -0.860038 1.673392 0.560180 -8.514753 24.941372 1.059680 -9.699254 1.832395 3.128770 -3.498538 -1.473764 -2.640375 -0.146398 5.316617 86.362176 11.163556 5.434978 4.654352 -1.671291 -2.416280 -1.081504 4.499785 -1.086405 -0.041812 -7.661292 -1.548591 -89.563962 0.141774 8.257103 -0.991528 -0.334319 -3.656253 -1.613580 1.775508 6.172722 1.834386 -2.666357 3.442537 -0.572849 -0.475332 -3.822426 -0.071018 -0.001633 0.023263 0.002905 7.668140 10.441486 1.892159 5.412459 2.206413 0.735141 5.388227 -7.083371 -1.610837 -0.001000 -0.019634 0.001554
-2.813768 89.069600 10.692145 -53.119279 -5.412468 -1.403688 -1.505055 2.933300 0.981767 -0.861991 1.673071 0.560718 -1.075041 2.092636 0.697032 -0.861991 1.673071 0.560718 -8.517937 24.927731 1.063930 -9.703639 1.816059 3.134284 -3.497884 -1.479333 -2.641737 -0.148644 5.328875 86.361057 11.162976 5.428691 4.652294 -1.670996 -2.417011 -1.088022 4.499269 -1.089663 -0.043326 -7.662102 -1.539266 -89.558058 0.160987 8.264418 -0.982006 -0.334127 -3.665037 -1.618934 1.765819 6.182392 1.836229 -2.673051 3.444392 -0.572146 -0.479804 -3.827581 -0.072053 -0.001469 0.022591 0.003093 7.650264 10.444534 1.895260 5.407104 2.209247 0.734337 5.386953 -7.083868 -1.609843 -0.000898 -0.019602 0.000529
-2.816182 89.069917 10.694190 -53.092290 -5.419386 -1.406516 -1.508925 2.933283 0.982069 -0.864284 1.673025 0.561494 -1.077904 2.092583 0.697991 -0.864284 1.673025 0.561494 -8.520859 24.913472 1.066380 -9.707257 1.798829 3.137733 -3.493652 -1.482314 -2.643805 -0.147833 5.339199 86.359582 11.162417 5.425462 4.647965 -1.670816 -2.414753 -1.089754 4.504227 -1.089366 -0.045558 -7.659570 -1.532444 -89.553197 0.180091 8.270306 -0.971921 -0.332797 -3.668822 -1.626084 1.756250 6.194098 1.839246 -2.678661 3.446183 -0.573117 -0.485628 -3.833012 -0.073218 -0.001638 0.022006 0.003958 7.631889 10.450159 1.897588 5.401336 2.210630 0.734624 5.388534 -7.083080 -1.608068 -0.000880 -0.019784 -0.001138
